HIERARCHY
ROOT Hips
{
	OFFSET 0.00000 0.00000 0.00000
	CHANNELS 6 Xposition Yposition Zposition Yrotation Zrotation Xrotation 
	JOINT Lumbar
	{
		OFFSET 0 0 0
		CHANNELS 3 Zrotation Xrotation Yrotation
		JOINT Neck
		{
			OFFSET 0.00 0.2701 0.00
			CHANNELS 3 Zrotation Xrotation Yrotation
			End Site
			{
				OFFSET 0.00 0.1379 0.00
			}
		}
		JOINT RightShoulder
		{
			OFFSET 0.0119 0.2289 0.1181
			CHANNELS 3 Zrotation Xrotation Yrotation
			JOINT RightElbow
			{
				OFFSET 0.00 -0.1475 0.00
				CHANNELS 2 Zrotation Yrotation
				JOINT RightWrist
				{
					OFFSET 0.00 -0.1605 0.00
					CHANNELS 2 Zrotation Xrotation
					End Site
					{
						OFFSET 0.0040 -0.1068 0.0006
					}
				}
			}
		}
		JOINT LeftShoulder
		{
			OFFSET 0.0119 0.2289 -0.1181
			CHANNELS 3 Zrotation Xrotation Yrotation
			JOINT LeftElbow
			{
				OFFSET 0.00 -0.1475 0.00
				CHANNELS 2 Zrotation Yrotation
				JOINT LeftWrist
				{
					OFFSET 0.00 -0.1605 0.00
					CHANNELS 2 Zrotation Xrotation
					End Site
					{
						OFFSET 0.0040 -0.1068 -0.0006
					}
				}
			}
		}
	}
	JOINT RightHip
	{
		OFFSET 0.0316 -0.0424 0.0458
		CHANNELS 3 Zrotation Xrotation Yrotation
		JOINT RightKnee
		{
			OFFSET 0.00 -0.2438 0.00
			CHANNELS 1 Zrotation
			JOINT RightAnkle
			{
				OFFSET 0.00 -0.2449 0.00
				CHANNELS 3 Zrotation Xrotation Yrotation
				End Site
				{
					OFFSET 0.1237 -0.0542 0.0051
				}
			}
		}
	}
	JOINT LeftHip
	{
		OFFSET 0.0316 -0.0424 -0.0458
		CHANNELS 3 Zrotation Xrotation Yrotation
		JOINT LeftKnee
		{
			OFFSET 0.00 -0.2438 0.00
			CHANNELS 1 Zrotation
			JOINT LeftAnkle
			{
				OFFSET 0.00 -0.2449 0.00
				CHANNELS 3 Zrotation Xrotation Yrotation
				End Site
				{
					OFFSET 0.1237 -0.0542 -0.0051
				}
			}
		}
	}
}
MOTION
Frames: 17
Frame Time: 0.02
-0 0.57926 0 184.11281 0 -3.06719 6.6339 4.31182 -4.72914 -8.94077 0.85283 -3.88548 8.69045 -9.46077 -6.9108 7.16439 78.35863 -2.23739 0.54222 23.9562 6.66189 -1.42338 13.91246 -81.20959 -6.075 4.48106 -8.59772 7.57778 -0.09056 -3.35411 3.79981 -5.11347 -11.44866 -5.80914 1.68134 -9.99983 -3.71675 7.31178 3.83781 4.56122
0.00024 0.57926 -0.00011 183.7999 0 -3.1135 6.63209 4.26898 -4.72037 -9.15089 1.37282 -3.58112 8.6616 -10.01241 -6.01247 7.259 78.36269 -2.31902 0.43806 23.18043 6.30067 -0.09288 13.23288 -81.16536 -5.9101 4.16822 -8.5337 7.59485 0.41692 -3.38703 3.74809 -5.13771 -11.64759 -5.82837 1.70819 -9.72155 -3.71088 7.35085 3.84527 4.58159
0.00048 0.57926 -0.00022 183.48839 0 -3.15964 6.63015 4.22647 -4.71179 -9.3607 1.89067 -3.27843 8.63284 -10.56184 -5.12223 7.35297 78.36666 -2.40029 0.33494 22.40364 5.94111 1.24622 12.55451 -81.11867 -5.74585 3.8558 -8.46998 7.61179 0.91649 -3.4196 3.69707 -5.16058 -11.84009 -5.84743 1.735 -9.44459 -3.70503 7.38965 3.85283 4.60198
0.00072 0.57925 -0.00034 183.17956 0 -3.20549 6.62786 4.18449 -4.70402 -9.57031 2.40552 -2.97951 8.60387 -11.10858 -4.24709 7.44616 78.37139 -2.47973 0.23429 21.61928 5.58524 2.59471 11.87277 -81.0625 -5.58067 3.54319 -8.40736 7.62791 1.37678 -3.45054 3.64927 -5.17763 -11.99642 -5.86629 1.76182 -9.17011 -3.69902 7.42784 3.86091 4.62252
0.00097 0.57925 -0.00044 182.8567 0 -3.25282 6.62769 4.13927 -4.69211 -9.7798 2.93689 -2.66071 8.57564 -11.6705 -3.28149 7.54452 78.37345 -2.56747 0.11975 20.87991 5.21051 3.8477 11.20698 -81.05748 -5.41811 3.23296 -8.33958 7.64783 2.03022 -3.48943 3.58554 -5.22481 -12.32967 -5.88656 1.78853 -8.88239 -3.69368 7.4694 3.86633 4.64213
0.00121 0.57925 -0.00056 182.56373 0 -3.29702 6.62284 4.10125 -4.6889 -9.99014 3.43237 -2.38419 8.54611 -12.19909 -2.51534 7.63116 78.38021 -2.63851 0.03524 20.0428 4.87559 5.33246 10.50943 -80.94366 -5.25172 2.91707 -8.28232 7.66005 2.28459 -3.51193 3.55479 -5.2087 -12.29832 -5.90357 1.81549 -8.62303 -3.68706 7.50371 3.87728 4.66379
0.00144 0.57926 -0.00071 182.34919 0 -3.33305 6.60622 4.08025 -4.71085 -10.20223 3.84207 -2.22171 8.50999 -12.65209 -2.24351 7.69219 78.40757 -2.65608 0.02936 18.93117 4.64969 7.26133 9.69041 -80.521 -5.05669 2.58487 -8.25742 7.64752 1.3133 -3.4843 3.62438 -5.00686 -11.13381 -5.91404 1.84342 -8.43712 -3.67524 7.51883 3.9052 4.69117
0.00167 0.57927 -0.00087 182.16541 0 -3.36587 6.58464 4.0671 -4.74126 -10.4156 4.21319 -2.10222 8.4731 -13.0686 -2.18644 7.74008 78.43768 -2.6585 0.05418 17.72122 4.46428 9.46197 8.84462 -79.99024 -4.8608 2.24734 -8.24252 7.62777 -0.04223 -3.44097 3.72581 -4.74293 -9.6202 -5.92082 1.87159 -8.28062 -3.66234 7.52646 3.93844 4.72067
0.00191 0.57927 -0.00103 181.96994 0 -3.39992 6.56458 4.05213 -4.76728 -10.62896 4.59425 -1.96463 8.4384 -13.49206 -2.06331 7.7898 78.46239 -2.67224 0.06829 16.55687 4.26022 11.66884 8.03202 -79.513 -4.67698 1.91148 -8.22085 7.6137 -1.13901 -3.40801 3.80651 -4.51424 -8.35073 -5.92767 1.89949 -8.11352 -3.65113 7.53709 3.96816 4.7492
0.00212 0.57928 -0.00118 181.76466 0 -3.43496 6.54765 4.02954 -4.7962 -10.83961 5.00873 -1.821 8.39574 -13.95739 -1.79348 7.8575 78.50717 -2.66589 0.0704 15.38575 4.05577 13.32959 7.13083 -79.01454 -4.44435 1.57631 -8.20852 7.58988 -2.57851 -3.3615 3.91292 -4.25583 -6.7327 -5.94118 1.92803 -7.93446 -3.63524 7.54967 4.0025 4.77769
0.00239 0.57929 -0.00133 181.58736 0 -3.46714 6.52301 4.02498 -4.82036 -11.05655 5.34263 -1.70015 8.36971 -14.32525 -1.89734 7.88401 78.50759 -2.69951 0.1027 14.20923 3.86363 16.19021 6.40775 -78.53803 -4.31262 1.24165 -8.17917 7.58419 -3.41087 -3.33933 3.97423 -4.04468 -5.74252 -5.9401 1.95535 -7.78767 -3.62836 7.55611 4.02854 4.80686
0.00284 0.57934 -0.00145 181.47743 0 -3.4925 6.47829 4.06578 -4.83558 -11.28792 5.47894 -1.63201 8.38831 -14.44681 -2.83596 7.80547 78.41125 -2.83203 0.23041 13.00882 3.67964 22.308 6.18306 -78.11741 -4.46476 0.88116 -8.09974 7.63436 -2.338 -3.38957 3.89541 -3.97832 -6.70422 -5.89809 1.97867 -7.72113 -3.65078 7.54969 4.03023 4.83812
0.00336 0.5794 -0.00156 181.39502 0 -3.51503 6.42593 4.12496 -4.84452 -11.52612 5.53244 -1.58534 8.42422 -14.46904 -4.17162 7.68511 78.26452 -3.00789 0.38486 11.813 3.50981 29.61508 6.13855 -77.72734 -4.71775 0.52611 -8.00289 7.70232 -0.66417 -3.46463 3.77147 -3.96172 -8.28686 -5.84178 2.0008 -7.68741 -3.68157 7.53679 4.02369 4.87089
0.00384 0.57946 -0.00167 181.30155 0 -3.53872 6.37712 4.17728 -4.85226 -11.76287 5.61395 -1.52847 8.45282 -14.52755 -5.41852 7.58003 78.1245 -3.17418 0.51287 10.63613 3.34372 36.37964 6.01146 -77.34508 -4.921 0.18803 -7.9145 7.75945 0.64377 -3.5274 3.67344 -3.92304 -9.49579 -5.79312 2.0239 -7.63839 -3.70576 7.52555 4.02064 4.90113
0.00432 0.57951 -0.00178 181.20306 0 -3.56294 6.32798 4.22338 -4.87753 -11.99251 5.73549 -1.47453 8.47791 -14.62191 -6.28013 7.48939 78.05598 -3.29823 0.69784 9.36505 3.1353 43.19072 5.88621 -76.8719 -5.13982 -0.22992 -7.82437 7.82774 2.32233 -3.59373 3.55411 -3.88036 -11.07134 -5.73968 2.04539 -7.58766 -3.74157 7.52005 4.01769 4.93491
0.00483 0.57957 -0.0019 181.12114 0 -3.5853 6.27756 4.28692 -4.86454 -12.23879 5.75355 -1.41959 8.51587 -14.61886 -8.04294 7.35993 77.8227 -3.51945 0.77571 8.29505 3.01885 50.14813 5.80049 -76.59121 -5.35127 -0.48316 -7.73332 7.87735 3.38632 -3.65893 3.46752 -3.85812 -12.04482 -5.69258 2.06972 -7.55339 -3.75538 7.50044 4.01397 4.96706
0.00537 0.57962 -0.00205 181.07843 0 -3.60411 6.22757 4.39227 -4.7486 -12.5273 5.51407 -1.35199 8.57329 -14.368 -12.13262 7.1248 77.18215 -4.01002 0.50184 7.75938 3.1448 57.52024 5.77814 -76.88312 -5.50761 -0.25666 -7.64628 7.86905 2.52408 -3.71343 3.48653 -3.88509 -11.12259 -5.66867 2.10416 -7.50626 -3.70472 7.44984 3.99659 4.94455
